<svg xmlns="http://www.w3.org/2000/svg" width="512" height="512">
  <path fill="#fff" d="M423.474 77.213q0-14.252-10.605-23.954-10.726-9.809-24.978-8.555-89.774 7.754-167.569 53.152-75.4 44.375-125.938 116.351-8.219 12.317-4.907 26.462 3.08 13.922 15.284 20.88l98.666 56.808v80.99q0 6.614 4.679 11.293t11.178 4.679q6.614 0 11.293-4.679 4.442-4.679 4.442-11.293v-9.358q0-6.614 4.786-11.293 4.679-4.679 11.178-4.679 6.614 0 11.294 4.679t4.679 11.293v61.478q0 6.614 4.679 11.293 4.786 4.679 11.293 4.679t11.293-4.679q4.679-4.679 4.679-11.293v-40.606q0-6.614 4.442-11.293 4.786-4.679 11.293-4.679t11.293 4.679q4.679 4.679 4.679 11.293v11.866q0 6.498 4.679 11.178t11.293 4.679q6.498 0 11.178-4.679t4.679-11.178V410.41l30.574 17.569q10.154 5.926 20.192 0 10.261-5.926 10.261-17.791V77.223zM292.973 186.605q6.958-11.973 20.421-15.512 13.578-3.647 25.551 3.303 12.089 6.958 15.628 20.643 3.647 13.457-3.539 25.551-6.958 12.089-20.421 15.512-13.578 3.54-25.551-3.418-12.089-7.186-15.628-20.421-3.418-13.578 3.539-25.666zm36.621 145.893q-3.539-13.578 3.418-25.551 6.958-12.089 20.536-15.628 13.457-3.647 25.551 3.303t15.512 20.643q3.647 13.578-3.418 25.551-6.958 12.089-20.536 15.628-13.457 3.418-25.551-3.539-12.089-7.187-15.512-20.421zm-132.32-138.255q13.457-3.54 25.322 3.418 12.089 7.186 15.741 20.643 3.647 13.578-3.418 25.429-7.186 11.973-20.536 15.741-13.457 3.418-25.551-3.54t-15.741-20.421q-3.418-13.457 3.54-25.551 7.079-12.089 20.643-15.741z"/>
</svg>